# xmcd
#
# Track frame offsets:
# 150
# 22705
# 45263
# 73556
# 99300
# 121857
# 149192
# 172669
# 191289
# 213520
# 238260
# 255922
# 281231
# 298882
# 323386
# 343363
#
# Disc length: 4793 seconds
#
#
# Revision: 1
# Processed by: cddbd v1.5.1PL2 Copyright (c) Steve Scherf et al.
# Submitted via: FreeRIP 2.945 
#
DISCID=e612b710
DTITLE=My Tam - The Best of My Tam 4 - Tra Lai Anh Tinh Dau
DYEAR=2003
DGENRE=Viet
TTITLE0=Tra Lai Anh Tinh Dau (Ng Nhat Huy)
TTITLE1=Tham Yeu (Quoc An)
TTITLE2=Ra Di (Tuan Khanh)
TTITLE3=Loi Nguyen Cau Trong Dem (nhac Hoa, lv Le Quang) w/ Minh Thuan
TTITLE4=Khong Con Yeu (nhac Phap, lv Quoc Bao)
TTITLE5=Dau Cham Hoi (The Hien)
TTITLE6=Ngay Tho Tinh Dau (nhac Huu Tam, loi Khac Dung)
TTITLE7=Hoa Mi Toc Nau (Tran Huan)
TTITLE8=Trai Tim An Binh (Minh Chau) w/ Minh Thuan
TTITLE9=Quanh Toi La Bong Toi (Le Quang)
TTITLE10=Bang Lang Tim (Vu Hoang)
TTITLE11=No Me Ames (nhac Mexico, lv My Tam) w/ Minh Quan
TTITLE12=Nu Tinh (Dang Quang Vy and Quoc Bao)
TTITLE13=Tinh Me (Nhat Huy)
TTITLE14=Thoat Ly (Quoc Dung)
TTITLE15=Nay Co Em Mat Nhung (nhac Ngoai Quoc) w/ Minh Thuan
EXTD=
EXTT0=
EXTT1=
EXTT2=
EXTT3=
EXTT4=
EXTT5=
EXTT6=
EXTT7=
EXTT8=
EXTT9=
EXTT10=
EXTT11=
EXTT12=
EXTT13=
EXTT14=
EXTT15=
PLAYORDER=
